# File created by Blade
# Date/Time:  Tue Jan 27 18:35:12 2015
#---------------------------------------------------------
:version 1.10
:name HOM
:units
  mass 1.0
  length 1.000000
  angle deg
:documentation
     Acclaim Skeleton File
:root
   axis xyz
   order TX TY TZ RX RY RZ
   position 0.000000 0.000000 0.000000
   orientation 0 0 0
:bonedata
   begin
      id 1
      name Spine_dum
      direction 0.000000 1.000000 0.000000
      length 5.195262
      axis 0.0 0.0 0.0 xyz
   end
   begin
      id 2
      name LeftUpLeg_dum
      direction 1.000000 0.000000 0.000000
      length 3.351363
      axis 0.0 0.0 0.0 xyz
   end
   begin
      id 3
      name RightUpLeg_dum
      direction -1.000000 0.000000 0.000000
      length 3.351363
      axis 0.0 0.0 0.0 xyz
   end
   begin
      id 4
      name Spine
      direction 0.000000 1.000000 0.000000
      length 0.000000
      axis 0.0 0.0 0.0 xyz
      dof rx ry rz
   end
   begin
      id 5
      name Spine_dum1
      direction 0.000000 1.000000 0.000000
      length 15.653875
      axis 0.0 0.0 0.0 xyz
   end
   begin
      id 6
      name Spine_dum2
      direction 0.000000 1.000000 0.000000
      length 10.329768
      axis 0.0 0.0 0.0 xyz
   end
   begin
      id 7
      name Spine_dum3
      direction 0.000000 1.000000 0.000000
      length 10.329768
      axis 0.0 0.0 0.0 xyz
   end
   begin
      id 8
      name Head
      direction 0.000000 1.000000 0.000000
      length 4.527550
      axis 0.0 0.0 0.0 xyz
      dof rx ry rz
   end
   begin
      id 9
      name LeftShoulder
      direction 1.000000 0.000000 0.000000
      length 6.996006
      axis 0.0 0.0 -90.0 xyz
      dof rx ry rz
   end
   begin
      id 10
      name LeftArm
      direction 1.000000 0.000000 0.000000
      length 10.209302
      axis 0.0 0.0 -90.0 xyz
      dof rx ry rz
   end
   begin
      id 11
      name LeftForeArm
      direction 1.000000 0.000000 0.000000
      length 8.563163
      axis 0.0 0.0 -90.0 xyz
      dof ry rz rx
   end
   begin
      id 12
      name LeftHand
      direction 0.000000 0.000000 0.000000
      length 0.000000
      axis 0.0 0.0 -90.0 xyz
      dof rx ry rz
   end
   begin
      id 13
      name LeftHand_dum1
      direction 0.000000 0.000000 0.000000
      length 0.000000
      axis 0.0 0.0 -90.0 xyz
   end
   begin
      id 14
      name LeftHand_dum2
      direction 1.000000 0.000000 0.000000
      length 3.937000
      axis 0.0 0.0 -90.0 xyz
   end
   begin
      id 15
      name LeftHandThumb1
      direction 0.000000 0.000000 1.000000
      length 3.937000
      axis 0.0 0.0 -90.0 xyz
      dof rx rz ry
   end
   begin
      id 16
      name RightShoulder
      direction -1.000000 0.000000 0.000000
      length 6.996006
      axis 0.0 0.0 90.0 xyz
      dof rx ry rz
   end
   begin
      id 17
      name RightArm
      direction -1.000000 0.000000 0.000000
      length 10.209302
      axis 0.0 0.0 90.0 xyz
      dof rx ry rz
   end
   begin
      id 18
      name RightForeArm
      direction -1.000000 0.000000 0.000000
      length 8.563163
      axis 0.0 0.0 90.0 xyz
      dof ry rz rx
   end
   begin
      id 19
      name RightHand
      direction 0.000000 0.000000 0.000000
      length 0.000000
      axis 0.0 0.0 90.0 xyz
      dof rx ry rz
   end
   begin
      id 20
      name RightHand_dum1
      direction 0.000000 0.000000 0.000000
      length 0.000000
      axis 0.0 0.0 90.0 xyz
   end
   begin
      id 21
      name RightHand_dum2
      direction -1.000000 0.000000 0.000000
      length 3.937000
      axis 0.0 0.0 90.0 xyz
   end
   begin
      id 22
      name RightHandThumb1
      direction 0.000000 0.000000 1.000000
      length 3.937000
      axis 0.0 0.0 90.0 xyz
      dof rx rz ry
   end
   begin
      id 23
      name LeftUpLeg
      direction 0.000000 -1.000000 0.000000
      length 16.346831
      axis 0.0 0.0 0.0 xyz
      dof rx ry rz
   end
   begin
      id 24
      name LeftLeg
      direction 0.000000 -1.000000 0.000000
      length 13.959795
      axis 0.0 0.0 0.0 xyz
      dof rx ry rz
   end
   begin
      id 25
      name LeftFoot
      direction 0.000000 -0.258819 0.965926
      length 5.165550
      axis 15.0 0.0 0.0 xyz
      dof rx ry rz
   end
   begin
      id 26
      name LeftToeBase
      direction 0.000000 0.000000 1.000000
      length 2.952750
      axis 0.0 0.0 0.0 xyz
      dof rx ry rz
   end
   begin
      id 27
      name RightUpLeg
      direction 0.000000 -1.000000 0.000000
      length 16.346831
      axis 0.0 0.0 0.0 xyz
      dof rx ry rz
   end
   begin
      id 28
      name RightLeg
      direction 0.000000 -1.000000 0.000000
      length 13.959795
      axis 0.0 0.0 0.0 xyz
      dof rx ry rz
   end
   begin
      id 29
      name RightFoot
      direction 0.000000 -0.258819 0.965926
      length 5.165550
      axis 15.0 0.0 0.0 xyz
      dof rx ry rz
   end
   begin
      id 30
      name RightToeBase
      direction 0.000000 0.000000 1.000000
      length 2.952750
      axis 0.0 0.0 0.0 xyz
      dof rx ry rz
   end
:hierarchy
   begin
      root Spine_dum LeftUpLeg_dum RightUpLeg_dum
      Spine_dum Spine
      LeftUpLeg_dum LeftUpLeg
      RightUpLeg_dum RightUpLeg
      Spine Spine_dum1 Spine_dum2 Spine_dum3
      Spine_dum1 Head
      Spine_dum2 LeftShoulder
      Spine_dum3 RightShoulder
      LeftShoulder LeftArm
      LeftArm LeftForeArm
      LeftForeArm LeftHand
      LeftHand LeftHand_dum1 LeftHand_dum2
      LeftHand_dum1 LeftHandThumb1
      RightShoulder RightArm
      RightArm RightForeArm
      RightForeArm RightHand
      RightHand RightHand_dum1 RightHand_dum2
      RightHand_dum1 RightHandThumb1
      LeftUpLeg LeftLeg
      LeftLeg LeftFoot
      LeftFoot LeftToeBase
      RightUpLeg RightLeg
      RightLeg RightFoot
      RightFoot RightToeBase
   end

# File created by Blade
# Date/Time:  Tue Jan 27 18:35:03 2015
# Frame Rate: 120.000 fps
#------------------------------------------------------
:FULLY-SPECIFIED
:DEGREES
150
root -3.944857 31.672556 -2.745565 1.839990 6.608559 -4.364564
Spine 5.292047 -8.771687 -2.136273
Head -1.497512 5.199464 7.084828
LeftShoulder -15.601518 15.527471 14.146621
LeftArm 18.602903 -39.899241 -71.236826
LeftForeArm 127.112892 -0.000000 125.091187
LeftHand 5.172699 -0.000000 -0.360443
LeftHandThumb1 -26.253704 0.000000 33.147579
RightShoulder -12.243428 -3.957051 -13.919210
RightArm 4.186266 -26.950836 84.943979
RightForeArm -24.814762 0.000000 30.773098
RightHand -15.576706 -0.000000 8.779485
RightHandThumb1 -24.326973 -0.000000 -32.862282
LeftUpLeg -11.643892 3.402713 -2.952614
LeftLeg 23.177956 -0.000000 -0.000000
LeftFoot -25.970498 22.502627 -17.414530
LeftToeBase 9.047433 -0.000000 -0.000000
RightUpLeg -55.332365 -7.439370 6.060879
RightLeg 80.236930 -0.000000 -0.000000
RightFoot 0.534978 -13.220483 11.601555
RightToeBase 8.499005 -0.000000 -0.000000
151
root -3.927420 31.680002 -2.754754 1.669481 6.670188 -4.612539
Spine 5.516029 -8.845062 -1.967196
Head -1.487553 5.020950 7.209594
LeftShoulder -15.620831 15.486670 14.178969
LeftArm 18.654249 -39.847039 -71.311394
LeftForeArm 127.261189 -0.000000 125.145164
LeftHand 5.199344 -0.000000 -0.627211
LeftHandThumb1 -26.253704 0.000000 33.147579
RightShoulder -12.229647 -3.994789 -13.849899
RightArm 4.270486 -27.062469 84.823687
RightForeArm -24.779421 -0.000000 30.534764
RightHand -15.592583 -0.000000 8.695255
RightHandThumb1 -24.326973 -0.000000 -32.862282
LeftUpLeg -11.583952 3.611326 -2.731709
LeftLeg 23.309033 -0.000000 -0.000000
LeftFoot -25.973944 22.277677 -17.355492
LeftToeBase 9.062388 -0.000000 -0.000000
RightUpLeg -56.773080 -7.661939 6.499256
RightLeg 80.642335 -0.000000 -0.000000
RightFoot 0.161207 -13.080444 11.984011
RightToeBase 7.965001 -0.000000 -0.000000
152
root -3.911974 31.687819 -2.762780 1.505406 6.719309 -4.861844
Spine 5.721554 -8.820818 -1.807312
Head -1.463978 4.759257 7.362409
LeftShoulder -15.555596 15.454830 14.236472
LeftArm 18.739142 -39.839931 -71.412486
LeftForeArm 127.606775 -0.000000 125.195252
LeftHand 5.177726 -0.000000 -0.724293
LeftHandThumb1 -26.253704 0.000000 33.147579
RightShoulder -12.286674 -4.016361 -13.742940
RightArm 4.299405 -27.058280 84.708067
RightForeArm -24.874781 -0.000000 30.315737
RightHand -15.608566 0.000000 8.926197
RightHandThumb1 -24.326973 -0.000000 -32.862282
LeftUpLeg -11.517677 3.844112 -2.504494
LeftLeg 23.421635 -0.000000 -0.000000
LeftFoot -26.035488 21.996915 -17.412298
LeftToeBase 9.223983 -0.000000 -0.000000
RightUpLeg -58.232059 -7.877800 6.953161
RightLeg 81.009834 -0.000000 -0.000000
RightFoot -0.077492 -12.967436 12.366130
RightToeBase 7.874698 -0.000000 -0.000000
153
root -3.887567 31.694223 -2.766604 1.324486 6.779564 -5.042976
Spine 5.944041 -8.888208 -1.701831
Head -1.449841 4.599338 7.455871
LeftShoulder -15.591045 15.445976 14.242699
LeftArm 18.856977 -39.818926 -71.550804
LeftForeArm 127.736481 -0.000000 125.273825
LeftHand 5.257744 0.000000 -0.963007
LeftHandThumb1 -26.253704 0.000000 33.147579
RightShoulder -12.296412 -4.036133 -13.661516
RightArm 4.345296 -27.130439 84.570928
RightForeArm -24.865093 -0.000000 30.132768
RightHand -15.604655 -0.000000 8.983546
RightHandThumb1 -24.326973 -0.000000 -32.862282
LeftUpLeg -11.389887 4.017625 -2.359750
LeftLeg 23.485454 -0.000000 -0.000000
LeftFoot -25.978733 21.790537 -17.282622
LeftToeBase 9.126913 -0.000000 -0.000000
RightUpLeg -59.689448 -8.194321 7.367658
RightLeg 81.384961 -0.000000 -0.000000
RightFoot -0.209313 -12.850106 12.477961
RightToeBase 7.192704 -0.000000 -0.000000
154
root -3.866589 31.701220 -2.785877 1.113797 7.081894 -5.351964
Spine 6.259478 -9.159345 -1.427295
Head -1.550939 4.371133 7.476236
LeftShoulder -15.554213 15.305366 14.242881
LeftArm 18.852071 -39.814979 -71.587852
LeftForeArm 127.993329 -0.000000 125.383702
LeftHand 5.266646 -0.000000 -1.077920
LeftHandThumb1 -26.253704 0.000000 33.147579
RightShoulder -12.327196 -4.041712 -13.615466
RightArm 4.444514 -27.114407 84.423563
RightForeArm -24.823810 0.000000 29.956342
RightHand -15.546773 -0.000000 9.143494
RightHandThumb1 -24.326973 -0.000000 -32.862282
LeftUpLeg -11.358757 3.957672 -2.072571
LeftLeg 23.701728 -0.000000 -0.000000
LeftFoot -26.210702 21.561060 -17.559017
LeftToeBase 9.166090 -0.000000 -0.000000
RightUpLeg -61.150502 -8.695403 7.897894
RightLeg 81.690246 -0.000000 -0.000000
RightFoot -0.328110 -12.646139 12.891333
RightToeBase 7.238578 -0.000000 -0.000000
155
root -3.852243 31.709898 -2.791060 0.905807 7.156681 -5.594361
Spine 6.515899 -9.208388 -1.285013
Head -1.553312 4.138722 7.618181
LeftShoulder -15.556536 15.271960 14.272028
LeftArm 18.987859 -39.826932 -71.763577
LeftForeArm 128.134765 -0.000000 125.484668
LeftHand 5.373946 -0.000000 -1.093492
LeftHandThumb1 -26.253704 0.000000 33.147579
RightShoulder -12.330125 -4.079201 -13.503481
RightArm 4.495928 -27.105037 84.279662
RightForeArm -24.650002 -0.000000 29.854008
RightHand -15.608913 0.000000 9.356442
RightHandThumb1 -24.326973 -0.000000 -32.862282
LeftUpLeg -11.235876 4.206425 -1.848165
LeftLeg 23.776251 -0.000000 -0.000000
LeftFoot -26.012620 21.259094 -17.223916
LeftToeBase 9.326243 -0.000000 -0.000000
RightUpLeg -62.589119 -8.945825 8.394263
RightLeg 81.968311 -0.000000 -0.000000
RightFoot -0.378857 -12.513723 13.093562
RightToeBase 7.267636 -0.000000 -0.000000
156
root -3.831490 31.715977 -2.791350 0.707545 7.217032 -5.771099
Spine 6.755547 -9.228438 -1.197108
Head -1.545928 3.886555 7.720923
LeftShoulder -15.523522 15.141122 14.260291
LeftArm 18.930320 -39.827127 -71.656138
LeftForeArm 128.174321 -0.000000 125.651130
LeftHand 5.439957 -0.000000 -1.341938
LeftHandThumb1 -26.253704 0.000000 33.147579
RightShoulder -12.381143 -4.127519 -13.393299
RightArm 4.541774 -27.080131 84.143004
RightForeArm -24.631525 -0.000000 29.711156
RightHand -15.536713 -0.000000 9.440486
RightHandThumb1 -24.326973 -0.000000 -32.862282
LeftUpLeg -11.090406 4.371076 -1.699282
LeftLeg 23.841909 -0.000000 -0.000000
LeftFoot -25.985152 21.084368 -17.131547
LeftToeBase 9.359577 -0.000000 -0.000000
RightUpLeg -64.048411 -9.183120 8.754694
RightLeg 82.315033 -0.000000 -0.000000
RightFoot -0.294443 -12.048016 13.218984
RightToeBase 6.820268 -0.000000 -0.000000
157
root -3.827927 31.722162 -2.795120 0.543453 7.268603 -6.029742
Spine 6.954471 -9.249714 -1.064637
Head -1.549625 3.665294 7.873877
LeftShoulder -15.534170 15.127668 14.282060
LeftArm 19.056256 -39.865452 -71.714901
LeftForeArm 128.366716 -0.000000 125.763648
LeftHand 5.506510 -0.000000 -1.224433
LeftHandThumb1 -26.253704 0.000000 33.147579
RightShoulder -12.399852 -4.133655 -13.261876
RightArm 4.539792 -27.146579 84.029647
RightForeArm -24.541492 -0.000000 29.606331
RightHand -15.651046 0.000000 9.331883
RightHandThumb1 -24.326973 -0.000000 -32.862282
LeftUpLeg -11.035199 4.579570 -1.444859
LeftLeg 23.990178 -0.000000 -0.000000
LeftFoot -26.013050 20.808735 -17.074738
LeftToeBase 9.605617 -0.000000 -0.000000
RightUpLeg -65.555891 -9.327520 9.255535
RightLeg 82.593067 -0.000000 -0.000000
RightFoot -0.234123 -11.842411 13.472595
RightToeBase 6.635375 -0.000000 -0.000000
158
root -3.806969 31.727228 -2.797101 0.327578 7.370504 -6.212932
Spine 7.220732 -9.316905 -0.970419
Head -1.545543 3.426958 7.967702
LeftShoulder -15.499679 15.058244 14.276040
LeftArm 19.076516 -39.896929 -71.710694
LeftForeArm 128.356451 -0.000000 125.948737
LeftHand 5.613157 -0.000000 -1.338587
LeftHandThumb1 -26.253704 0.000000 33.147579
RightShoulder -12.424750 -4.177717 -13.167251
RightArm 4.592795 -27.133165 83.890707
RightForeArm -24.589148 0.000000 29.483898
RightHand -15.592582 -0.000000 9.348389
RightHandThumb1 -24.326973 -0.000000 -32.862282
LeftUpLeg -10.885976 4.593308 -1.292325
LeftLeg 24.062053 -0.000000 -0.000000
LeftFoot -26.019759 20.759719 -17.017059
LeftToeBase 9.626652 -0.000000 -0.000000
RightUpLeg -67.027203 -9.603871 9.686927
RightLeg 82.878042 -0.000000 -0.000000
RightFoot -0.127192 -11.561966 13.516836
RightToeBase 6.828322 -0.000000 -0.000000
